<?xml version="1.0" encoding="UTF-8"?>
<svg id="Capa_4" xmlns="http://www.w3.org/2000/svg" version="1.1" viewBox="0 0 72 36.71">
  <!-- Generator: Adobe Illustrator 29.3.1, SVG Export Plug-In . SVG Version: 2.1.0 Build 151)  -->
  <defs>
    <style>
      .st0 {
        fill: #fff;
      }

      .st1 {
        fill: #e8a95a;
      }
    </style>
  </defs>
  <g>
    <path class="st1" d="M3.07,2.07c2.62-.4,5.74-.69,9.15-.69,6.18,0,10.58,1.44,13.5,4.16,2.97,2.73,4.7,6.59,4.7,11.99s-1.68,9.91-4.8,12.98c-3.12,3.12-8.26,4.81-14.74,4.81-3.07,0-5.64-.15-7.81-.4V2.07ZM7.37,31.61c1.09.2,2.67.25,4.35.25,9.2,0,14.19-5.15,14.19-14.17.05-7.88-4.4-12.88-13.5-12.88-2.23,0-3.91.2-5.04.45v26.36Z"/>
    <path class="st1" d="M63.89,20.36c-.25-4.66-.54-10.26-.49-14.42h-.15c-1.14,3.91-2.52,8.08-4.2,12.69l-5.88,16.2h-3.26l-5.39-15.91c-1.58-4.71-2.92-9.02-3.86-12.98h-.1c-.1,4.16-.35,9.76-.64,14.77l-.89,14.32h-4.1L37.24,1.63h5.49l5.69,16.15c1.38,4.11,2.52,7.78,3.36,11.25h.15c.84-3.37,2.03-7.04,3.51-11.25L61.37,1.63h5.49l2.08,33.4h-4.2l-.84-14.67Z"/>
    <rect class="st1" x="3.32" y="19.21" width="64.27" height="5.64"/>
  </g>
  <g>
    <path class="st0" d="M3.07,2.07c2.62-.4,5.74-.69,9.15-.69,6.18,0,10.58,1.44,13.5,4.16,2.97,2.73,4.7,6.59,4.7,11.99s-1.68,9.91-4.8,12.98c-3.12,3.12-8.26,4.81-14.74,4.81-3.07,0-5.64-.15-7.81-.4V2.07ZM7.37,31.61c1.09.2,2.67.25,4.35.25,9.2,0,14.19-5.15,14.19-14.17.05-7.88-4.4-12.88-13.5-12.88-2.23,0-3.91.2-5.04.45v26.36Z"/>
    <path class="st0" d="M63.89,20.36c-.25-4.66-.54-10.26-.49-14.42h-.15c-1.14,3.91-2.52,8.08-4.2,12.69l-5.88,16.2h-3.26l-5.39-15.91c-1.58-4.71-2.92-9.02-3.86-12.98h-.1c-.1,4.16-.35,9.76-.64,14.77l-.89,14.32h-4.1L37.24,1.63h5.49l5.69,16.15c1.38,4.11,2.52,7.78,3.36,11.25h.15c.84-3.37,2.03-7.04,3.51-11.25L61.37,1.63h5.49l2.08,33.4h-4.2l-.84-14.67Z"/>
    <rect class="st0" x="3.32" y="19.21" width="64.27" height="5.64"/>
  </g>
</svg>